<svg width="100" height="56" viewBox="0 0 100 56" fill="none" xmlns="http://www.w3.org/2000/svg">
<path d="M20.6897 39.3434C17.6907 39.3434 15.251 41.7831 15.251 44.7821C15.251 47.7811 17.6907 50.2208 20.6897 50.2208C23.6887 50.2208 26.1284 47.7809 26.1284 44.7821C26.1284 41.7833 23.6887 39.3434 20.6897 39.3434ZM20.6897 46.9627C19.4872 46.9627 18.5091 45.9843 18.5091 44.7821C18.5091 43.5798 19.4872 42.6015 20.6897 42.6015C21.8922 42.6015 22.8703 43.5796 22.8703 44.7821C22.8703 45.9846 21.8922 46.9627 20.6897 46.9627Z" fill="#7240C7"/>
<path d="M77.5463 39.3434C74.5473 39.3434 72.1074 41.7831 72.1074 44.7821C72.1074 47.7811 74.5473 50.2208 77.5463 50.2208C80.5451 50.2208 82.9848 47.7809 82.9848 44.7821C82.9848 41.7833 80.5451 39.3434 77.5463 39.3434ZM77.5463 46.9627C76.3439 46.9627 75.3656 45.9843 75.3656 44.7821C75.3656 43.5798 76.3439 42.6015 77.5463 42.6015C78.7486 42.6015 79.7267 43.5796 79.7267 44.7821C79.7267 45.9846 78.7486 46.9627 77.5463 46.9627Z" fill="#7240C7"/>
<path d="M88.888 20.5137L74.353 18.8531L66.5956 6.24282C64.2269 2.39213 59.9468 0 55.4258 0H29.0357C21.4497 0 14.745 5.10833 12.7313 12.4229L12.5254 13.1711C11.5247 16.8057 8.64928 19.6987 5.02101 20.7218C2.06479 21.5554 0 24.2827 0 27.3543V45.3853C0 46.2849 0.729389 47.0143 1.62907 47.0143H10.004C11.0373 51.9663 15.4356 55.6979 20.6896 55.6979C25.9437 55.6979 30.342 51.9663 31.3753 47.0143H66.8608C67.894 51.9663 72.2923 55.6979 77.5464 55.6979C82.8005 55.6979 87.1987 51.9663 88.232 47.0143H97.024C97.8522 47.0143 98.5488 46.3929 98.6426 45.5699L99.9185 34.3873C100.701 27.5228 95.7533 21.2991 88.888 20.5137ZM3.25814 41.7768H10.1978C10.0147 42.4149 9.88716 43.0763 9.8233 43.7562H3.25814V41.7768ZM20.6896 52.4398C16.4671 52.4398 13.0319 49.0046 13.0319 44.7821C13.0319 40.5595 16.4671 37.1241 20.6896 37.1241C24.9122 37.1241 28.3474 40.5595 28.3474 44.7821C28.3474 49.0046 24.9122 52.4398 20.6896 52.4398ZM77.5464 52.4398C73.3238 52.4398 69.8887 49.0046 69.8887 44.7821C69.8887 40.5595 73.3238 37.1241 77.5464 37.1241C81.7689 37.1241 85.2041 40.5595 85.2041 44.7821C85.2041 49.0046 81.7689 52.4398 77.5464 52.4398ZM77.5464 33.866C73.8567 33.866 70.5911 35.7079 68.6143 38.5186H39.6244C38.7248 38.5186 37.9954 39.248 37.9954 40.1477C37.9954 41.0474 38.7248 41.7768 39.6244 41.7768H67.0545C66.8714 42.4149 66.7439 43.0763 66.6801 43.7562H31.556C31.0371 38.2165 26.3627 33.866 20.6896 33.866C16.9999 33.866 13.7344 35.7079 11.7575 38.5186H3.25814V27.3543C3.25814 25.735 4.3468 24.297 5.90527 23.8576C10.6248 22.527 14.3649 18.7636 15.6667 14.0359L15.8726 13.2876C17.4982 7.38252 22.9113 3.25814 29.0357 3.25814H55.4258C58.8236 3.25814 62.0402 5.05598 63.8203 7.94987L71.993 21.2353C72.2552 21.6614 72.6987 21.9434 73.1957 22.0003L88.5179 23.7508C91.9937 24.1485 94.8046 26.43 96.0485 29.4582H90.963C90.0633 29.4582 89.3339 30.1876 89.3339 31.0872C89.3339 31.9869 90.0633 32.7163 90.963 32.7163H96.736C96.7473 33.1453 96.731 33.5797 96.681 34.018L96.1675 38.5186H86.4783C84.5017 35.7079 81.2359 33.866 77.5464 33.866ZM88.4125 43.7562C88.3489 43.0763 88.2212 42.4149 88.038 41.7768H95.7959L95.57 43.7562H88.4125Z" fill="#7240C7"/>
<path d="M55.5113 24.5974H52.0881C51.1884 24.5974 50.459 25.3268 50.459 26.2265C50.459 27.1262 51.1884 27.8556 52.0881 27.8556H55.5113C56.411 27.8556 57.1404 27.1262 57.1404 26.2265C57.1404 25.3268 56.4112 24.5974 55.5113 24.5974Z" fill="#7240C7"/>
<path d="M33.6335 26.2265C33.6335 25.3268 32.9041 24.5974 32.0044 24.5974H28.5812C27.6815 24.5974 26.9521 25.3268 26.9521 26.2265C26.9521 27.1262 27.6815 27.8556 28.5812 27.8556H32.0044C32.9041 27.8556 33.6335 27.1262 33.6335 26.2265Z" fill="#7240C7"/>
<path d="M35.652 39.5238C35.3666 38.8477 34.6402 38.4228 33.9089 38.5364C33.2466 38.6394 32.7095 39.1376 32.5594 39.791C32.2344 41.205 33.8737 42.3028 35.066 41.4915C35.697 41.0623 35.9431 40.2287 35.652 39.5238C35.6933 39.6237 35.6107 39.4261 35.652 39.5238Z" fill="#7240C7"/>
<path d="M62.1253 8.99505C60.7067 6.68459 58.1399 5.24927 55.4263 5.24927H29.0353C23.8034 5.24927 19.1803 8.77175 17.7924 13.8167L17.5875 14.5634C17.0515 16.5088 16.2261 19.8503 16.1911 19.9917C16.071 20.4778 16.1813 20.9922 16.49 21.3866C16.7988 21.7809 17.2717 22.0113 17.7726 22.0113H67.2182C67.8083 22.0113 68.3524 21.6922 68.6402 21.177C68.9282 20.6618 68.915 20.0312 68.6057 19.5286L62.1253 8.99505ZM43.3014 8.50719V18.7527H28.3023V8.53999C28.5444 8.51871 28.7888 8.50719 29.0353 8.50719H43.3014ZM20.729 15.4268L20.9341 14.6794C21.5553 12.4215 23.0769 10.5874 25.0441 9.52134V18.7525H19.8602C20.135 17.6682 20.4706 16.3654 20.729 15.4268ZM46.5596 18.7527V8.50719H55.4263C57.0154 8.50719 58.5183 9.34736 59.3495 10.701L64.3034 18.7527H46.5596Z" fill="#7240C7"/>
</svg>
