<svg width="24" height="24" viewBox="0 0 24 24" fill="none" xmlns="http://www.w3.org/2000/svg">
<path d="M4.42669 20.4007L2.74219 1.5H21.2582L19.5714 20.3978L11.9889 22.5L4.42669 20.4007Z" fill="#1572B6"/>
<path d="M12 20.8936L18.1275 19.1949L19.569 3.0459H12V20.8936Z" fill="#33A9DC"/>
<path d="M12 9.89342H15.0675L15.279 7.51967H12V5.20142H17.8125L17.757 5.82317L17.1877 12.2117H12V9.89342Z" fill="white"/>
<path d="M12.0139 15.9134L12.0034 15.9164L9.42194 15.2189L9.25694 13.3701H6.92969L7.25444 17.0099L12.0027 18.3284L12.0139 18.3254V15.9134Z" fill="#EBEBEB"/>
<path d="M14.8701 12.1133L14.5911 15.2175L12.0059 15.915V18.327L16.7579 17.01L16.7931 16.6185L17.1959 12.1133H14.8701Z" fill="white"/>
<path d="M12.0084 5.20142V7.51967H6.40892L6.36242 6.99842L6.25667 5.82317L6.20117 5.20142H12.0084ZM12.0002 9.89342V12.2117H9.45092L9.40442 11.6904L9.29942 10.5152L9.24392 9.89342H12.0002Z" fill="#EBEBEB"/>
</svg>
