<svg width="24" height="24" viewBox="0 0 24 24" fill="none" xmlns="http://www.w3.org/2000/svg">
<path d="M5.26492 4.79995L18.7343 4.79996C19.2661 4.79918 19.7872 4.95043 20.2373 5.23622C20.6874 5.522 21.0482 5.93062 21.2778 6.41479C21.5466 6.98926 21.6501 7.62839 21.5766 8.25937C21.5031 8.89034 21.2554 9.48777 20.8619 9.98358L14.1272 18.2192C13.8629 18.5271 13.5361 18.774 13.1691 18.9432C12.802 19.1124 12.4032 19.2 11.9996 19.2C11.5961 19.2 11.1972 19.1124 10.8302 18.9432C10.4631 18.774 10.1363 18.5271 9.87202 18.2192L3.13734 9.98358C2.7438 9.48777 2.49616 8.89034 2.42262 8.25937C2.34909 7.62839 2.45262 6.98926 2.72142 6.41479C2.95104 5.93062 3.3118 5.522 3.76193 5.23622C4.21206 4.95043 4.73317 4.79918 5.26492 4.79995Z" fill="white"/>
</svg>
