<svg width="24" height="24" viewBox="0 0 24 24" fill="none" xmlns="http://www.w3.org/2000/svg">
<path fill-rule="evenodd" clip-rule="evenodd" d="M16.125 1.5C15.8266 1.5 15.5405 1.61853 15.3295 1.8295C15.1185 2.04048 15 2.32663 15 2.625C15 2.92337 15.1185 3.20952 15.3295 3.4205C15.5405 3.63147 15.8266 3.75 16.125 3.75H18.66L12.33 10.08C12.1313 10.2933 12.0231 10.5753 12.0282 10.8668C12.0334 11.1582 12.1514 11.4363 12.3576 11.6424C12.5637 11.8486 12.8418 11.9666 13.1332 11.9718C13.4247 11.9769 13.7067 11.8687 13.92 11.67L20.25 5.34V7.875C20.25 8.17337 20.3685 8.45952 20.5795 8.6705C20.7905 8.88147 21.0766 9 21.375 9C21.6734 9 21.9595 8.88147 22.1705 8.6705C22.3815 8.45952 22.5 8.17337 22.5 7.875V1.5H16.125ZM3.75 6V19.5C3.75 19.6989 3.82902 19.8897 3.96967 20.0303C4.11032 20.171 4.30109 20.25 4.5 20.25H18C18.1989 20.25 18.3897 20.171 18.5303 20.0303C18.671 19.8897 18.75 19.6989 18.75 19.5V13.125C18.75 12.8266 18.8685 12.5405 19.0795 12.3295C19.2905 12.1185 19.5766 12 19.875 12C20.1734 12 20.4595 12.1185 20.6705 12.3295C20.8815 12.5405 21 12.8266 21 13.125V19.5C21 20.2956 20.6839 21.0587 20.1213 21.6213C19.5587 22.1839 18.7956 22.5 18 22.5H4.5C3.70435 22.5 2.94129 22.1839 2.37868 21.6213C1.81607 21.0587 1.5 20.2956 1.5 19.5V6C1.5 5.20435 1.81607 4.44129 2.37868 3.87868C2.94129 3.31607 3.70435 3 4.5 3H10.875C11.1734 3 11.4595 3.11853 11.6705 3.3295C11.8815 3.54048 12 3.82663 12 4.125C12 4.42337 11.8815 4.70952 11.6705 4.9205C11.4595 5.13147 11.1734 5.25 10.875 5.25H4.5C4.30109 5.25 4.11032 5.32902 3.96967 5.46967C3.82902 5.61032 3.75 5.80109 3.75 6Z" fill="white"/>
</svg>
