<svg width="24" height="24" viewBox="0 0 24 24" fill="none" xmlns="http://www.w3.org/2000/svg">
<path d="M1.5 1.5H22.5V22.5H1.5V1.5Z" fill="#F5DE19"/>
<path d="M15.607 17.9063C15.786 18.2697 16.064 18.5752 16.409 18.7875C16.754 18.9999 17.152 19.1104 17.557 19.1063C18.3745 19.1063 18.8973 18.6975 18.8973 18.1313C18.8973 17.4563 18.3603 17.2148 17.4603 16.821L16.9668 16.6095C15.5418 16.0028 14.5968 15.243 14.5968 13.6365C14.5968 12.1568 15.7218 11.0295 17.4865 11.0295C18.0578 10.9883 18.6286 11.1162 19.1277 11.3972C19.6268 11.6782 20.0321 12.0999 20.293 12.6098L18.7503 13.596C18.6498 13.3432 18.4749 13.1269 18.2486 12.9759C18.0224 12.8248 17.7556 12.746 17.4835 12.75C17.3649 12.7382 17.245 12.7511 17.1316 12.7881C17.0182 12.8251 16.9138 12.8853 16.825 12.9649C16.7361 13.0445 16.6649 13.1417 16.6157 13.2504C16.5665 13.3591 16.5405 13.4768 16.5393 13.596C16.5393 14.1878 16.906 14.4278 17.7528 14.796L18.2463 15.0075C19.9233 15.7268 20.8713 16.4595 20.8713 18.1073C20.8713 19.884 19.4755 20.8575 17.6013 20.8575C16.871 20.9041 16.1429 20.7383 15.5048 20.3802C14.8666 20.022 14.3458 19.4869 14.005 18.8393L15.607 17.9063ZM8.6358 18.0773C8.94555 18.627 9.22755 19.092 9.90555 19.092C10.5535 19.092 10.963 18.8385 10.963 17.8523V11.142H12.9363V17.8785C12.9363 19.9215 11.7363 20.8515 9.98955 20.8515C9.37211 20.8853 8.75891 20.7314 8.23056 20.4102C7.70221 20.0889 7.28344 19.6153 7.0293 19.0515L8.6358 18.0773Z" fill="black"/>
</svg>
