<svg width="24" height="24" viewBox="0 0 24 24" fill="none" xmlns="http://www.w3.org/2000/svg">
<path d="M10.5077 22.7692C9.828 22.7692 9.27697 22.2181 9.27697 21.5384V2.46148C9.27697 1.78175 9.828 1.23071 10.5077 1.23071H13.4917C14.1714 1.23071 14.7224 1.78175 14.7224 2.46148V21.5384C14.7224 22.2181 14.1714 22.7692 13.4917 22.7692H10.5077ZM2.46124 14.7227C1.7815 14.7227 1.23047 14.1716 1.23047 13.4919V10.508C1.23047 9.82825 1.7815 9.27722 2.46124 9.27722H21.5382C22.2179 9.27722 22.7689 9.82825 22.7689 10.508V13.4919C22.7689 14.1716 22.2179 14.7227 21.5382 14.7227H2.46124Z" fill="white"/>
</svg>
