<svg width="100" height="86" viewBox="0 0 100 86" fill="none" xmlns="http://www.w3.org/2000/svg">
<path d="M98.5197 34.7992C96.6504 32.3614 93.4416 31.3892 90.5336 32.3807L90.4425 32.4118L85.5571 7.86568C85.4894 7.52452 85.3115 7.21482 85.0511 6.98427L77.6179 0.400503C77.1658 -0.000104783 76.5254 -0.110194 75.9657 0.115688C75.4055 0.341743 75.0214 0.86523 74.9738 1.46735L74.4047 8.67709L36.9352 29.0773C36.4228 29.3563 36.1039 29.8929 36.1039 30.4762V42.0508H29.2312C28.4357 42.0508 27.762 42.6379 27.6533 43.426L26.1147 54.5811H3.15849C2.36056 54.5811 1.68568 55.1715 1.57974 55.9623L0.0141151 67.6431C-0.0468921 68.0984 0.0917135 68.5578 0.393984 68.9035C0.696255 69.2491 1.13333 69.4475 1.5927 69.4475H19.3261V70.5094H11.2559C7.15732 70.5094 3.82266 73.8438 3.82266 77.9426C3.82266 82.0413 7.15714 85.3758 11.2559 85.3758H59.253C63.3515 85.3758 66.6862 82.0413 66.6862 77.9426C66.6862 73.8438 63.3517 70.5094 59.253 70.5094H37.803V69.4475H51.9261C52.3854 69.4475 52.8225 69.2493 53.1248 68.9035C53.4272 68.5578 53.5657 68.0983 53.5048 67.6431L50.26 43.432C50.1541 42.6412 49.4792 42.0508 48.6813 42.0508H47.0102L48.071 35.6858L76.8258 17.3693L90.4405 49.6646L89.0701 51.6614C88.5724 52.3868 88.7568 53.3783 89.482 53.876C89.7576 54.0649 90.0715 54.1556 90.3819 54.1556C90.8891 54.1556 91.3879 53.9138 91.6965 53.464L98.7402 43.2003C100.498 40.64 100.409 37.2639 98.5197 34.7992ZM77.898 4.90432L82.5373 9.01341L87.4006 33.4486L86.4271 33.7804L79.1287 14.4496L77.5372 9.47589L77.898 4.90432ZM63.5007 77.9424C63.5007 80.2845 61.5953 82.1899 59.2532 82.1899H11.2559C8.91374 82.1899 7.00834 80.2843 7.00834 77.9424C7.00834 75.6003 8.91374 73.6949 11.2559 73.6949H59.253C61.5953 73.6949 63.5007 75.6004 63.5007 77.9424ZM34.6175 70.5092H22.512V69.4473H34.6175V70.5092ZM3.41341 66.2617L4.55198 57.7666H27.5028C28.2983 57.7666 28.972 57.1795 29.0807 56.3915L30.6193 45.2363H32.0688V54.3397C32.0688 58.2858 34.7499 61.6809 38.5885 62.5959L49.9782 65.311L50.1055 66.2615H3.41341V66.2617ZM49.5248 61.9283L39.3273 59.4973C36.9294 58.9258 35.2547 56.8049 35.2547 54.3399V45.2365H47.288L49.5248 61.9283ZM45.7609 33.3803C45.38 33.6232 45.1199 34.0162 45.0454 34.4619L43.7805 42.0508H39.2896V31.4226L74.9947 11.9832L75.7325 14.2889L45.7609 33.3803ZM96.114 41.3977L92.5152 46.6415L87.701 36.7121L91.5614 35.396C93.1749 34.8461 94.9546 35.3855 95.9914 36.7376C97.0394 38.1047 97.0889 39.9774 96.114 41.3977Z" fill="#7240C7"/>
<path d="M10.7962 76.6163C10.2183 76.9966 9.95544 77.742 10.1571 78.4019C10.3524 79.0405 10.9364 79.495 11.6025 79.5303C12.2392 79.564 12.8465 79.1934 13.1195 78.6202C13.4251 77.9788 13.2552 77.1843 12.7113 76.7257C12.1726 76.2711 11.3828 76.2291 10.7962 76.6163C10.8832 76.5589 10.7091 76.6736 10.7962 76.6163Z" fill="#7240C7"/>
<path d="M57.3573 78.5576C57.7947 79.5904 59.1515 79.8566 59.9546 79.0757C60.8421 78.1615 60.3449 76.5753 59.0743 76.3753C57.8761 76.1871 56.883 77.4306 57.3573 78.5576C57.3977 78.6532 57.317 78.462 57.3573 78.5576Z" fill="#7240C7"/>
<path d="M16.459 79.5354H54.0496C54.9295 79.5354 55.6424 78.8223 55.6424 77.9426C55.6424 77.0629 54.9293 76.3499 54.0496 76.3499H16.459C15.5791 76.3499 14.8662 77.0629 14.8662 77.9426C14.8662 78.8221 15.5793 79.5354 16.459 79.5354Z" fill="#7240C7"/>
<path d="M13.8263 60.5276H7.45506C6.57521 60.5276 5.8623 61.2407 5.8623 62.1203C5.8623 63 6.57538 63.7131 7.45506 63.7131H13.8264C14.7063 63.7131 15.4192 63 15.4192 62.1203C15.4192 61.2407 14.7061 60.5276 13.8263 60.5276Z" fill="#7240C7"/>
</svg>
